[Header]
FileType HTR
DataType HTRS
FileVersion 1
NumSegments 22
NumFrames 4
DataFrameRate 24
EulerRotationOrder ZYX
CalibrationUnits mm
RotationUnits Degrees
GlobalAxisofGravity Y
BoneLengthAxis Y
ScaleFactor 1.0
[SegmentNames&Hierarchy]
reference	GLOBAL
Hips	reference
Spine	Hips
Spine1	Spine
Neck	Spine1
Head	Neck
LeftShoulder	Spine1
LeftArm	LeftShoulder
LeftForeArm	LeftArm
LeftHand	LeftForeArm
RightShoulder	Spine1
RightArm	RightShoulder
RightForeArm	RightArm
RightHand	RightForeArm
LeftUpLeg	Hips
LeftLeg	LeftUpLeg
LeftFoot	LeftLeg
LeftToeBase	LeftFoot
RightUpLeg	Hips
RightLeg	RightUpLeg
RightFoot	RightLeg
RightToeBase	RightFoot
[BasePosition]
reference	0	0	0	0	0	0	1
Hips	0	0	0	0	0	0	1
Spine	0	0	0	0	-0	90	1
Spine1	0	0	0	0	0	0	1
Neck	0	0	0	-7.352327771	-7.352327771	90	1
Head	0	0	0	0	-0	90	1
LeftShoulder	0	0	0	0	0	0	1
LeftArm	0	0	0	0	0	0	1
LeftForeArm	0	0	0	0	0	0	1
LeftHand	0	0	0	0	0	0	1
RightShoulder	0	0	0	0	-0	180	1
RightArm	0	0	0	0	-0	180	1
RightForeArm	0	0	0	0	-0	180	1
RightHand	0	0	0	0	-0	180	1
LeftUpLeg	0	0	0	0	-0	-90	1
LeftLeg	0	0	0	0	-0	-90	1
LeftFoot	0	0	0	66.57146043	-66.57146043	-90	1
LeftToeBase	0	0	0	0	-90	0	1
RightUpLeg	0	0	0	0	-0	-90	1
RightLeg	0	0	0	0	-0	-90	1
RightFoot	0	0	0	66.57146043	-66.57146043	-90	1
RightToeBase	0	0	0	0	-90	0	1
[reference]
10	0	0	0	0	-0	0	1.0
11	0	0	0	0	-0	0	1.0
12	0	0	0	0	-0	0	1.0
13	0	0	0	0	-0	0	1.0
[Hips]
10	7.109590054	8.308119774	-0.433430016	10.40493202	-78.76858521	-4.198516846	1.0
11	7.109590054	8.308119774	-0.433430016	10.49653339	-78.68855286	-4.294256687	1.0
12	7.109590054	8.308119774	-0.4307344258	10.37633896	-78.54029846	-4.139546871	1.0
13	7.109590054	8.308119774	-0.4085867405	9.998392105	-78.25487518	-3.688474655	1.0
[Spine]
10	0	0.7457100153	0	-11.66691113	0.1760302335	-90.86927795	1.0
11	0	0.7457100153	0	-11.75286293	0.3152438104	-90.84251404	1.0
12	0	0.7457100153	0	-11.81570435	0.4137878418	-90.87253571	1.0
13	0	0.7457100153	0	-11.87401772	0.4428894222	-90.9420166	1.0
[Spine1]
10	0	2.140589952	0	10.60190678	-0.02292972058	1.203416109	1.0
11	0	2.140589952	0	10.68969631	0.02067478746	1.229757547	1.0
12	0	2.140589952	0	10.72813129	0.04929896072	1.322592258	1.0
13	0	2.140589952	0	10.70309925	0.05448139459	1.369281411	1.0
[Neck]
10	0	2.32246995	0	-15.5904026	4.039970398	-90.94337463	1.0
11	0	2.32246995	0	-15.61243629	4.053998947	-90.96250153	1.0
12	0	2.32246995	0	-15.57942486	4.116710663	-90.97051239	1.0
13	0	2.32246995	0	-15.52350903	4.298926353	-90.85169983	1.0
[Head]
10	0	1.409579992	0.1818799973	-4.079892159	-3.217022657	-91.75003815	1.0
11	0	1.409579992	0.1818799973	-4.078177452	-3.200865746	-91.76787567	1.0
12	0	1.409579992	0.1818799973	-4.090178013	-3.133300781	-91.78675842	1.0
13	0	1.409579992	0.1818799973	-4.066799641	-2.945702314	-91.85813141	1.0
[LeftShoulder]
10	0.3668199778	1.946700096	-0.02662999928	-15.20554161	-12.84983158	-1.867780805	1.0
11	0.3668199778	1.946700096	-0.02662999928	-15.12428665	-12.85265732	-1.918048143	1.0
12	0.3668199778	1.946700096	-0.02662999928	-15.07976913	-12.77979374	-1.859714866	1.0
13	0.3668199778	1.946700096	-0.02662999928	-14.93463326	-12.75996304	-1.863311291	1.0
[LeftArm]
10	1.140689969	0	0	42.03470993	14.39619064	-77.13250732	1.0
11	1.140689969	0	0	41.86335373	14.55687332	-77.19090271	1.0
12	1.140689969	0	0	41.53819656	14.71807098	-77.35929871	1.0
13	1.140689969	0	0	41.38075638	14.88611412	-77.4005661	1.0
[LeftForeArm]
10	2.749800205	0	0	-15.84502125	-14.5334549	3.480330467	1.0
11	2.749800205	0	0	-15.92104435	-14.41531181	3.398280621	1.0
12	2.749800205	0	0	-15.81000042	-14.24567509	3.265607834	1.0
13	2.749800205	0	0	-15.83436775	-14.18847275	3.167373896	1.0
[LeftHand]
10	2.295179844	0	0	-15.14763355	-8.836937904	-3.282185316	1.0
11	2.295179844	0	0	-15.26877785	-8.658982277	-2.939550638	1.0
12	2.295179844	0	0	-15.164114	-8.578041077	-3.171983957	1.0
13	2.295179844	0	0	-15.21275234	-8.472640991	-3.071226358	1.0
[RightShoulder]
10	-0.3601199985	1.946700096	-0.02662999928	-5.781145096	2.461824417	175.2079163	1.0
11	-0.3601199985	1.946700096	-0.02662999928	-5.845238686	2.453455448	175.1968689	1.0
12	-0.3601199985	1.946700096	-0.02662999928	-5.902457237	2.509412766	175.1752625	1.0
13	-0.3601199985	1.946700096	-0.02662999928	-5.659857273	2.522248745	175.3191681	1.0
[RightArm]
10	-1.140689969	0	0	50.39117432	-1.508688211	-96.39009857	1.0
11	-1.140689969	0	0	50.85309601	-1.519018531	-96.25177002	1.0
12	-1.140689969	0	0	51.50961304	-1.488408089	-96.08971405	1.0
13	-1.140689969	0	0	51.55221558	-1.105673194	-96.17517853	1.0
[RightForeArm]
10	-2.749800205	0	0	-4.987764835	11.42332077	174.3635864	1.0
11	-2.749800205	0	0	-5.118694305	11.37270069	174.2883759	1.0
12	-2.749800205	0	0	-5.273340225	11.34795284	174.1196289	1.0
13	-2.749800205	0	0	-5.101329327	11.72415924	174.1559296	1.0
[RightHand]
10	-2.295179844	0	0	-4.738311768	6.042788982	174.0420837	1.0
11	-2.295179844	0	0	-4.859258652	6.110837936	174.2033844	1.0
12	-2.295179844	0	0	-4.99514246	6.144086838	174.2931213	1.0
13	-2.295179844	0	0	-4.821155071	6.254982471	174.142868	1.0
[LeftUpLeg]
10	0.9094099998	0	0	-5.549479485	0.7802517414	88.89639282	1.0
11	0.9094099998	0	0	-5.430387497	0.9900357723	88.81380463	1.0
12	0.9094099998	0	0	-5.352048874	0.6474649906	88.77196503	1.0
13	0.9094099998	0	0	-5.48223877	0.1760072261	88.65444183	1.0
[LeftLeg]
10	0	-4.498080254	0	5.494370937	-7.896784782	86.27483368	1.0
11	0	-4.498080254	0	5.378727913	-8.013773918	86.29782104	1.0
12	0	-4.498080254	0	5.309937954	-7.950968266	86.25537109	1.0
13	0	-4.498080254	0	5.610583305	-7.977810383	86.19076538	1.0
[LeftFoot]
10	0	-3.729400158	0	-85.22564697	119.2528839	-25.10943413	1.0
11	0	-3.729400158	0	-85.44718933	119.1944427	-25.3590641	1.0
12	0	-3.729400158	0	-85.34594727	119.3663177	-25.15545845	1.0
13	0	-3.729400158	0	-85.17899323	119.4848022	-24.83946228	1.0
[LeftToeBase]
10	0	-0.5911099911	1.364109993	0	0	0	1.0
11	0	-0.5911099911	1.364109993	0	0	0	1.0
12	0	-0.5911099911	1.364109993	0	0	0	1.0
13	0	-0.5911099911	1.364109993	0	0	0	1.0
[RightUpLeg]
10	-0.9094099998	0	0	2.486310482	-10.56602383	90.53257751	1.0
11	-0.9094099998	0	0	2.605574608	-10.47348595	90.4672699	1.0
12	-0.9094099998	0	0	2.704992294	-10.34768391	90.36164856	1.0
13	-0.9094099998	0	0	2.75351572	-11.01089859	90.18663788	1.0
[RightLeg]
10	0	-4.498080254	0	6.439492226	-2.380360126	89.85437775	1.0
11	0	-4.498080254	0	6.33435154	-2.438113451	89.89189148	1.0
12	0	-4.498080254	0	6.302167892	-2.468803883	89.9766922	1.0
13	0	-4.498080254	0	6.336731911	-2.896733999	89.92796326	1.0
[RightFoot]
10	0	-3.729400158	0	31.66334152	61.28588486	87.04472351	1.0
11	0	-3.729400158	0	31.60582733	61.17565918	86.89536285	1.0
12	0	-3.729400158	0	31.32236481	60.99085617	86.60583496	1.0
13	0	-3.729400158	0	32.70227814	61.09548187	88.10574341	1.0
[RightToeBase]
10	0	-0.5911099911	1.364109993	0	0	0	1.0
11	0	-0.5911099911	1.364109993	0	0	0	1.0
12	0	-0.5911099911	1.364109993	0	0	0	1.0
13	0	-0.5911099911	1.364109993	0	0	0	1.0
[EndOfFile]
